<svg width="142" height="102" viewBox="0 0 142 102" fill="none" xmlns="http://www.w3.org/2000/svg">
<path d="M15.6565 2.00006H125.375C130.211 2.00006 134.131 5.92045 134.131 10.7559V87.6788H6.90063V10.7559C6.90063 5.92045 10.821 2.00006 15.6565 2.00006Z" fill="#EFEFEF"/>
<path d="M15.6565 2.00006H125.375C130.211 2.00006 134.131 5.92045 134.131 10.7559V87.6788H6.90063V10.7559C6.90063 5.92045 10.821 2.00006 15.6565 2.00006Z" stroke="#AEAEAE" stroke-width="4"/>
<path d="M0 90.5746C0 90.0796 0.401279 89.6783 0.896282 89.6783H140.135C140.63 89.6783 141.032 90.0796 141.032 90.5746V95.1636C141.032 98.4637 138.356 101.139 135.056 101.139H8.96281C4.01278 101.139 0 97.1261 0 92.176L0 90.5746Z" fill="#A5A5A5"/>
</svg>
