<svg width="22" height="22" viewBox="0 0 22 22" fill="none" xmlns="http://www.w3.org/2000/svg">
<path d="M8.44629 13.5391C8.97622 13.3345 9.29335 13.3333 9.54395 13.4746C9.79228 13.6148 9.94706 13.8801 10.0303 14.4277C10.114 14.9791 10.1152 15.7445 10.1152 16.8037V18.3223C10.1152 19.3815 10.114 20.1469 10.0303 20.6982C9.94706 21.2459 9.79227 21.5111 9.54395 21.6514C9.29335 21.7927 8.97622 21.7914 8.44629 21.5869C7.91439 21.3816 7.23451 20.9992 6.2959 20.4697L4.94922 19.71C4.01046 19.1804 3.33149 18.7965 2.88379 18.4492C2.43729 18.1029 2.2824 17.839 2.28223 17.5635C2.28223 17.2878 2.43702 17.0233 2.88379 16.6768C3.33149 16.3295 4.01045 15.9455 4.94922 15.416L6.2959 14.6572C7.23452 14.1278 7.91439 13.7444 8.44629 13.5391ZM12.4561 13.4746C12.7066 13.3333 13.0238 13.3345 13.5537 13.5391C14.0856 13.7444 14.7654 14.1278 15.7041 14.6572L17.0508 15.416C17.9896 15.9455 18.6685 16.3295 19.1162 16.6768C19.563 17.0233 19.7178 17.2878 19.7178 17.5635C19.7176 17.839 19.5627 18.1029 19.1162 18.4492C18.6685 18.7965 17.9895 19.1804 17.0508 19.71L15.7041 20.4688C14.7654 20.9982 14.0856 21.3816 13.5537 21.5869C13.0238 21.7914 12.7066 21.7927 12.4561 21.6514C12.2078 21.5111 12.0529 21.2458 11.9697 20.6982C11.886 20.1469 11.8848 19.3815 11.8848 18.3223V16.8037C11.8848 15.7445 11.886 14.9791 11.9697 14.4277C12.0529 13.8801 12.2077 13.6148 12.4561 13.4746ZM0.821289 6.91113C1.07181 6.76987 1.38831 6.7722 1.91797 6.97656C2.44983 7.18183 3.12983 7.56436 4.06836 8.09375L5.41504 8.85352C6.35378 9.38303 7.03276 9.76703 7.48047 10.1143C7.92733 10.4608 8.08301 10.7243 8.08301 11C8.08301 11.2757 7.92733 11.5392 7.48047 11.8857C7.03276 12.233 6.35377 12.617 5.41504 13.1465L4.06836 13.9062C3.12983 14.4356 2.44983 14.8182 1.91797 15.0234C1.38831 15.2278 1.07181 15.2301 0.821289 15.0889C0.572787 14.9487 0.418219 14.6835 0.334961 14.1357C0.251175 13.5844 0.25 12.8192 0.25 11.7598V10.2402C0.25 9.18084 0.251175 8.41564 0.334961 7.86426C0.418219 7.31647 0.572787 7.05131 0.821289 6.91113ZM20.082 6.97656C20.6117 6.7722 20.9282 6.76987 21.1787 6.91113C21.4272 7.0513 21.5818 7.31648 21.665 7.86426C21.7488 8.41563 21.75 9.18085 21.75 10.2402V11.7598C21.75 12.8191 21.7488 13.5844 21.665 14.1357C21.5818 14.6835 21.4272 14.9487 21.1787 15.0889C20.9282 15.2301 20.6117 15.2278 20.082 15.0234C19.5502 14.8182 18.8702 14.4356 17.9316 13.9062L16.585 13.1465C15.6462 12.617 14.9672 12.233 14.5195 11.8857C14.0727 11.5392 13.917 11.2757 13.917 11C13.917 10.7243 14.0727 10.4608 14.5195 10.1143C14.9672 9.76702 15.6462 9.38304 16.585 8.85352L17.9316 8.09375C18.8702 7.56436 19.5502 7.18183 20.082 6.97656ZM8.44629 0.413086C8.97622 0.208563 9.29335 0.20728 9.54395 0.348633C9.79227 0.488866 9.94706 0.754131 10.0303 1.30176C10.114 1.85313 10.1152 2.61855 10.1152 3.67773V5.19629C10.1152 6.25551 10.114 7.02089 10.0303 7.57227C9.94706 8.11991 9.79228 8.38516 9.54395 8.52539C9.29335 8.66674 8.97622 8.66546 8.44629 8.46094C7.91439 8.25564 7.23452 7.87222 6.2959 7.34277L4.94922 6.58398C4.01045 6.05445 3.33149 5.67048 2.88379 5.32324C2.43702 4.97671 2.28223 4.71222 2.28223 4.43652C2.2824 4.161 2.43729 3.89711 2.88379 3.55078C3.33149 3.20355 4.01046 2.81956 4.94922 2.29004L6.2959 1.53027C7.23451 1.00083 7.91439 0.618386 8.44629 0.413086ZM12.4561 0.348633C12.7066 0.20728 13.0238 0.208563 13.5537 0.413086C14.0856 0.618379 14.7654 1.00178 15.7041 1.53125L17.0508 2.29004C17.9895 2.81957 18.6685 3.20354 19.1162 3.55078C19.5627 3.89712 19.7176 4.161 19.7178 4.43652C19.7178 4.71222 19.563 4.9767 19.1162 5.32324C18.6685 5.67048 17.9896 6.05445 17.0508 6.58398L15.7041 7.34277C14.7654 7.87224 14.0856 8.25565 13.5537 8.46094C13.0238 8.66546 12.7066 8.66674 12.4561 8.52539C12.2077 8.38515 12.0529 8.11987 11.9697 7.57227C11.886 7.02089 11.8848 6.25551 11.8848 5.19629V3.67773C11.8848 2.61853 11.886 1.85313 11.9697 1.30176C12.0529 0.754157 12.2078 0.488871 12.4561 0.348633Z" fill="white"/>
<path d="M8.44629 13.5391C8.97622 13.3345 9.29335 13.3333 9.54395 13.4746C9.79228 13.6148 9.94706 13.8801 10.0303 14.4277C10.114 14.9791 10.1152 15.7445 10.1152 16.8037V18.3223C10.1152 19.3815 10.114 20.1469 10.0303 20.6982C9.94706 21.2459 9.79227 21.5111 9.54395 21.6514C9.29335 21.7927 8.97622 21.7914 8.44629 21.5869C7.91439 21.3816 7.23451 20.9992 6.2959 20.4697L4.94922 19.71C4.01046 19.1804 3.33149 18.7965 2.88379 18.4492C2.43729 18.1029 2.2824 17.839 2.28223 17.5635C2.28223 17.2878 2.43702 17.0233 2.88379 16.6768C3.33149 16.3295 4.01045 15.9455 4.94922 15.416L6.2959 14.6572C7.23452 14.1278 7.91439 13.7444 8.44629 13.5391ZM12.4561 13.4746C12.7066 13.3333 13.0238 13.3345 13.5537 13.5391C14.0856 13.7444 14.7654 14.1278 15.7041 14.6572L17.0508 15.416C17.9896 15.9455 18.6685 16.3295 19.1162 16.6768C19.563 17.0233 19.7178 17.2878 19.7178 17.5635C19.7176 17.839 19.5627 18.1029 19.1162 18.4492C18.6685 18.7965 17.9895 19.1804 17.0508 19.71L15.7041 20.4688C14.7654 20.9982 14.0856 21.3816 13.5537 21.5869C13.0238 21.7914 12.7066 21.7927 12.4561 21.6514C12.2078 21.5111 12.0529 21.2458 11.9697 20.6982C11.886 20.1469 11.8848 19.3815 11.8848 18.3223V16.8037C11.8848 15.7445 11.886 14.9791 11.9697 14.4277C12.0529 13.8801 12.2077 13.6148 12.4561 13.4746ZM0.821289 6.91113C1.07181 6.76987 1.38831 6.7722 1.91797 6.97656C2.44983 7.18183 3.12983 7.56436 4.06836 8.09375L5.41504 8.85352C6.35378 9.38303 7.03276 9.76703 7.48047 10.1143C7.92733 10.4608 8.08301 10.7243 8.08301 11C8.08301 11.2757 7.92733 11.5392 7.48047 11.8857C7.03276 12.233 6.35377 12.617 5.41504 13.1465L4.06836 13.9062C3.12983 14.4356 2.44983 14.8182 1.91797 15.0234C1.38831 15.2278 1.07181 15.2301 0.821289 15.0889C0.572787 14.9487 0.418219 14.6835 0.334961 14.1357C0.251175 13.5844 0.25 12.8192 0.25 11.7598V10.2402C0.25 9.18084 0.251175 8.41564 0.334961 7.86426C0.418219 7.31647 0.572787 7.05131 0.821289 6.91113ZM20.082 6.97656C20.6117 6.7722 20.9282 6.76987 21.1787 6.91113C21.4272 7.0513 21.5818 7.31648 21.665 7.86426C21.7488 8.41563 21.75 9.18085 21.75 10.2402V11.7598C21.75 12.8191 21.7488 13.5844 21.665 14.1357C21.5818 14.6835 21.4272 14.9487 21.1787 15.0889C20.9282 15.2301 20.6117 15.2278 20.082 15.0234C19.5502 14.8182 18.8702 14.4356 17.9316 13.9062L16.585 13.1465C15.6462 12.617 14.9672 12.233 14.5195 11.8857C14.0727 11.5392 13.917 11.2757 13.917 11C13.917 10.7243 14.0727 10.4608 14.5195 10.1143C14.9672 9.76702 15.6462 9.38304 16.585 8.85352L17.9316 8.09375C18.8702 7.56436 19.5502 7.18183 20.082 6.97656ZM8.44629 0.413086C8.97622 0.208563 9.29335 0.20728 9.54395 0.348633C9.79227 0.488866 9.94706 0.754131 10.0303 1.30176C10.114 1.85313 10.1152 2.61855 10.1152 3.67773V5.19629C10.1152 6.25551 10.114 7.02089 10.0303 7.57227C9.94706 8.11991 9.79228 8.38516 9.54395 8.52539C9.29335 8.66674 8.97622 8.66546 8.44629 8.46094C7.91439 8.25564 7.23452 7.87222 6.2959 7.34277L4.94922 6.58398C4.01045 6.05445 3.33149 5.67048 2.88379 5.32324C2.43702 4.97671 2.28223 4.71222 2.28223 4.43652C2.2824 4.161 2.43729 3.89711 2.88379 3.55078C3.33149 3.20355 4.01046 2.81956 4.94922 2.29004L6.2959 1.53027C7.23451 1.00083 7.91439 0.618386 8.44629 0.413086ZM12.4561 0.348633C12.7066 0.20728 13.0238 0.208563 13.5537 0.413086C14.0856 0.618379 14.7654 1.00178 15.7041 1.53125L17.0508 2.29004C17.9895 2.81957 18.6685 3.20354 19.1162 3.55078C19.5627 3.89712 19.7176 4.161 19.7178 4.43652C19.7178 4.71222 19.563 4.9767 19.1162 5.32324C18.6685 5.67048 17.9896 6.05445 17.0508 6.58398L15.7041 7.34277C14.7654 7.87224 14.0856 8.25565 13.5537 8.46094C13.0238 8.66546 12.7066 8.66674 12.4561 8.52539C12.2077 8.38515 12.0529 8.11987 11.9697 7.57227C11.886 7.02089 11.8848 6.25551 11.8848 5.19629V3.67773C11.8848 2.61853 11.886 1.85313 11.9697 1.30176C12.0529 0.754157 12.2078 0.488871 12.4561 0.348633Z" fill="url(#paint0_linear_399_15168)"/>
<path d="M8.44629 13.5391C8.97622 13.3345 9.29335 13.3333 9.54395 13.4746C9.79228 13.6148 9.94706 13.8801 10.0303 14.4277C10.114 14.9791 10.1152 15.7445 10.1152 16.8037V18.3223C10.1152 19.3815 10.114 20.1469 10.0303 20.6982C9.94706 21.2459 9.79227 21.5111 9.54395 21.6514C9.29335 21.7927 8.97622 21.7914 8.44629 21.5869C7.91439 21.3816 7.23451 20.9992 6.2959 20.4697L4.94922 19.71C4.01046 19.1804 3.33149 18.7965 2.88379 18.4492C2.43729 18.1029 2.2824 17.839 2.28223 17.5635C2.28223 17.2878 2.43702 17.0233 2.88379 16.6768C3.33149 16.3295 4.01045 15.9455 4.94922 15.416L6.2959 14.6572C7.23452 14.1278 7.91439 13.7444 8.44629 13.5391ZM12.4561 13.4746C12.7066 13.3333 13.0238 13.3345 13.5537 13.5391C14.0856 13.7444 14.7654 14.1278 15.7041 14.6572L17.0508 15.416C17.9896 15.9455 18.6685 16.3295 19.1162 16.6768C19.563 17.0233 19.7178 17.2878 19.7178 17.5635C19.7176 17.839 19.5627 18.1029 19.1162 18.4492C18.6685 18.7965 17.9895 19.1804 17.0508 19.71L15.7041 20.4688C14.7654 20.9982 14.0856 21.3816 13.5537 21.5869C13.0238 21.7914 12.7066 21.7927 12.4561 21.6514C12.2078 21.5111 12.0529 21.2458 11.9697 20.6982C11.886 20.1469 11.8848 19.3815 11.8848 18.3223V16.8037C11.8848 15.7445 11.886 14.9791 11.9697 14.4277C12.0529 13.8801 12.2077 13.6148 12.4561 13.4746ZM0.821289 6.91113C1.07181 6.76987 1.38831 6.7722 1.91797 6.97656C2.44983 7.18183 3.12983 7.56436 4.06836 8.09375L5.41504 8.85352C6.35378 9.38303 7.03276 9.76703 7.48047 10.1143C7.92733 10.4608 8.08301 10.7243 8.08301 11C8.08301 11.2757 7.92733 11.5392 7.48047 11.8857C7.03276 12.233 6.35377 12.617 5.41504 13.1465L4.06836 13.9062C3.12983 14.4356 2.44983 14.8182 1.91797 15.0234C1.38831 15.2278 1.07181 15.2301 0.821289 15.0889C0.572787 14.9487 0.418219 14.6835 0.334961 14.1357C0.251175 13.5844 0.25 12.8192 0.25 11.7598V10.2402C0.25 9.18084 0.251175 8.41564 0.334961 7.86426C0.418219 7.31647 0.572787 7.05131 0.821289 6.91113ZM20.082 6.97656C20.6117 6.7722 20.9282 6.76987 21.1787 6.91113C21.4272 7.0513 21.5818 7.31648 21.665 7.86426C21.7488 8.41563 21.75 9.18085 21.75 10.2402V11.7598C21.75 12.8191 21.7488 13.5844 21.665 14.1357C21.5818 14.6835 21.4272 14.9487 21.1787 15.0889C20.9282 15.2301 20.6117 15.2278 20.082 15.0234C19.5502 14.8182 18.8702 14.4356 17.9316 13.9062L16.585 13.1465C15.6462 12.617 14.9672 12.233 14.5195 11.8857C14.0727 11.5392 13.917 11.2757 13.917 11C13.917 10.7243 14.0727 10.4608 14.5195 10.1143C14.9672 9.76702 15.6462 9.38304 16.585 8.85352L17.9316 8.09375C18.8702 7.56436 19.5502 7.18183 20.082 6.97656ZM8.44629 0.413086C8.97622 0.208563 9.29335 0.20728 9.54395 0.348633C9.79227 0.488866 9.94706 0.754131 10.0303 1.30176C10.114 1.85313 10.1152 2.61855 10.1152 3.67773V5.19629C10.1152 6.25551 10.114 7.02089 10.0303 7.57227C9.94706 8.11991 9.79228 8.38516 9.54395 8.52539C9.29335 8.66674 8.97622 8.66546 8.44629 8.46094C7.91439 8.25564 7.23452 7.87222 6.2959 7.34277L4.94922 6.58398C4.01045 6.05445 3.33149 5.67048 2.88379 5.32324C2.43702 4.97671 2.28223 4.71222 2.28223 4.43652C2.2824 4.161 2.43729 3.89711 2.88379 3.55078C3.33149 3.20355 4.01046 2.81956 4.94922 2.29004L6.2959 1.53027C7.23451 1.00083 7.91439 0.618386 8.44629 0.413086ZM12.4561 0.348633C12.7066 0.20728 13.0238 0.208563 13.5537 0.413086C14.0856 0.618379 14.7654 1.00178 15.7041 1.53125L17.0508 2.29004C17.9895 2.81957 18.6685 3.20354 19.1162 3.55078C19.5627 3.89712 19.7176 4.161 19.7178 4.43652C19.7178 4.71222 19.563 4.9767 19.1162 5.32324C18.6685 5.67048 17.9896 6.05445 17.0508 6.58398L15.7041 7.34277C14.7654 7.87224 14.0856 8.25565 13.5537 8.46094C13.0238 8.66546 12.7066 8.66674 12.4561 8.52539C12.2077 8.38515 12.0529 8.11987 11.9697 7.57227C11.886 7.02089 11.8848 6.25551 11.8848 5.19629V3.67773C11.8848 2.61853 11.886 1.85313 11.9697 1.30176C12.0529 0.754157 12.2078 0.488871 12.4561 0.348633Z" stroke="url(#paint1_linear_399_15168)" stroke-width="0.5"/>
<defs>
<linearGradient id="paint0_linear_399_15168" x1="11" y1="-2.75" x2="11.7733" y2="30.2462" gradientUnits="userSpaceOnUse">
<stop stop-color="white"/>
<stop offset="1" stop-color="#80B2FF"/>
</linearGradient>
<linearGradient id="paint1_linear_399_15168" x1="11.6111" y1="27.5" x2="11.6111" y2="-3.4375" gradientUnits="userSpaceOnUse">
<stop stop-color="white" stop-opacity="0"/>
<stop offset="1" stop-color="white"/>
</linearGradient>
</defs>
</svg>
