<svg width="22" height="22" viewBox="0 0 22 22" fill="none" xmlns="http://www.w3.org/2000/svg">
<path d="M8.51953 18.167C8.28011 18.9405 7.67488 19.5467 6.90137 19.7861L1.29297 21.5215C0.926412 21.6349 0.678749 21.7112 0.498047 21.7393C0.317155 21.7673 0.284313 21.7335 0.275391 21.7246C0.266341 21.7156 0.232825 21.6823 0.260742 21.502C0.288771 21.3212 0.365069 21.0735 0.478516 20.707L2.21484 15.0986C2.4543 14.3252 3.05957 13.7199 3.83301 13.4805L10.6211 11.3789L8.51953 18.167ZM18.167 13.4805C18.9405 13.7199 19.5467 14.3251 19.7861 15.0986L21.5215 20.707C21.6349 21.0736 21.7112 21.3212 21.7393 21.502C21.7673 21.6828 21.7335 21.7157 21.7246 21.7246C21.7156 21.7336 21.6826 21.7672 21.502 21.7393C21.3212 21.7112 21.0736 21.6349 20.707 21.5215L15.0986 19.7861C14.3251 19.5467 13.7199 18.9405 13.4805 18.167L11.3789 11.3789L18.167 13.4805ZM0.498047 0.260742C0.67876 0.288775 0.926439 0.365066 1.29297 0.478516L6.90137 2.21387C7.67488 2.45329 8.28011 3.0595 8.51953 3.83301L10.6201 10.6201L3.83301 8.51953C3.0595 8.28011 2.45329 7.67488 2.21387 6.90137L0.478516 1.29297C0.365066 0.926439 0.288775 0.67876 0.260742 0.498047C0.232737 0.317155 0.266468 0.284313 0.275391 0.275391C0.284313 0.266468 0.317155 0.232737 0.498047 0.260742ZM21.502 0.260742C21.6825 0.232792 21.7156 0.266387 21.7246 0.275391C21.7335 0.284313 21.7673 0.317154 21.7393 0.498047C21.7112 0.678753 21.6349 0.926422 21.5215 1.29297L19.7861 6.90137C19.5467 7.67488 18.9405 8.28011 18.167 8.51953L11.3789 10.6201L13.4805 3.83301C13.7199 3.0595 14.3251 2.45329 15.0986 2.21387L20.707 0.478516C21.0736 0.365068 21.3212 0.288773 21.502 0.260742Z" fill="white"/>
<path d="M8.51953 18.167C8.28011 18.9405 7.67488 19.5467 6.90137 19.7861L1.29297 21.5215C0.926412 21.6349 0.678749 21.7112 0.498047 21.7393C0.317155 21.7673 0.284313 21.7335 0.275391 21.7246C0.266341 21.7156 0.232825 21.6823 0.260742 21.502C0.288771 21.3212 0.365069 21.0735 0.478516 20.707L2.21484 15.0986C2.4543 14.3252 3.05957 13.7199 3.83301 13.4805L10.6211 11.3789L8.51953 18.167ZM18.167 13.4805C18.9405 13.7199 19.5467 14.3251 19.7861 15.0986L21.5215 20.707C21.6349 21.0736 21.7112 21.3212 21.7393 21.502C21.7673 21.6828 21.7335 21.7157 21.7246 21.7246C21.7156 21.7336 21.6826 21.7672 21.502 21.7393C21.3212 21.7112 21.0736 21.6349 20.707 21.5215L15.0986 19.7861C14.3251 19.5467 13.7199 18.9405 13.4805 18.167L11.3789 11.3789L18.167 13.4805ZM0.498047 0.260742C0.67876 0.288775 0.926439 0.365066 1.29297 0.478516L6.90137 2.21387C7.67488 2.45329 8.28011 3.0595 8.51953 3.83301L10.6201 10.6201L3.83301 8.51953C3.0595 8.28011 2.45329 7.67488 2.21387 6.90137L0.478516 1.29297C0.365066 0.926439 0.288775 0.67876 0.260742 0.498047C0.232737 0.317155 0.266468 0.284313 0.275391 0.275391C0.284313 0.266468 0.317155 0.232737 0.498047 0.260742ZM21.502 0.260742C21.6825 0.232792 21.7156 0.266387 21.7246 0.275391C21.7335 0.284313 21.7673 0.317154 21.7393 0.498047C21.7112 0.678753 21.6349 0.926422 21.5215 1.29297L19.7861 6.90137C19.5467 7.67488 18.9405 8.28011 18.167 8.51953L11.3789 10.6201L13.4805 3.83301C13.7199 3.0595 14.3251 2.45329 15.0986 2.21387L20.707 0.478516C21.0736 0.365068 21.3212 0.288773 21.502 0.260742Z" fill="url(#paint0_linear_399_15169)"/>
<path d="M8.51953 18.167C8.28011 18.9405 7.67488 19.5467 6.90137 19.7861L1.29297 21.5215C0.926412 21.6349 0.678749 21.7112 0.498047 21.7393C0.317155 21.7673 0.284313 21.7335 0.275391 21.7246C0.266341 21.7156 0.232825 21.6823 0.260742 21.502C0.288771 21.3212 0.365069 21.0735 0.478516 20.707L2.21484 15.0986C2.4543 14.3252 3.05957 13.7199 3.83301 13.4805L10.6211 11.3789L8.51953 18.167ZM18.167 13.4805C18.9405 13.7199 19.5467 14.3251 19.7861 15.0986L21.5215 20.707C21.6349 21.0736 21.7112 21.3212 21.7393 21.502C21.7673 21.6828 21.7335 21.7157 21.7246 21.7246C21.7156 21.7336 21.6826 21.7672 21.502 21.7393C21.3212 21.7112 21.0736 21.6349 20.707 21.5215L15.0986 19.7861C14.3251 19.5467 13.7199 18.9405 13.4805 18.167L11.3789 11.3789L18.167 13.4805ZM0.498047 0.260742C0.67876 0.288775 0.926439 0.365066 1.29297 0.478516L6.90137 2.21387C7.67488 2.45329 8.28011 3.0595 8.51953 3.83301L10.6201 10.6201L3.83301 8.51953C3.0595 8.28011 2.45329 7.67488 2.21387 6.90137L0.478516 1.29297C0.365066 0.926439 0.288775 0.67876 0.260742 0.498047C0.232737 0.317155 0.266468 0.284313 0.275391 0.275391C0.284313 0.266468 0.317155 0.232737 0.498047 0.260742ZM21.502 0.260742C21.6825 0.232792 21.7156 0.266387 21.7246 0.275391C21.7335 0.284313 21.7673 0.317154 21.7393 0.498047C21.7112 0.678753 21.6349 0.926422 21.5215 1.29297L19.7861 6.90137C19.5467 7.67488 18.9405 8.28011 18.167 8.51953L11.3789 10.6201L13.4805 3.83301C13.7199 3.0595 14.3251 2.45329 15.0986 2.21387L20.707 0.478516C21.0736 0.365068 21.3212 0.288773 21.502 0.260742Z" stroke="url(#paint1_linear_399_15169)" stroke-width="0.5"/>
<defs>
<linearGradient id="paint0_linear_399_15169" x1="11" y1="-2.75" x2="11.7733" y2="30.2462" gradientUnits="userSpaceOnUse">
<stop stop-color="white"/>
<stop offset="1" stop-color="#80B2FF"/>
</linearGradient>
<linearGradient id="paint1_linear_399_15169" x1="11.6111" y1="27.5" x2="11.6111" y2="-3.4375" gradientUnits="userSpaceOnUse">
<stop stop-color="white" stop-opacity="0"/>
<stop offset="1" stop-color="white"/>
</linearGradient>
</defs>
</svg>
