<svg width="23" height="21" viewBox="0 0 23 21" fill="none" xmlns="http://www.w3.org/2000/svg">
<path d="M22.0112 2.94352C23.522 5.50093 22.6229 8.76536 20.0002 10.2453L19.8289 10.3419C18.0696 11.3346 16.9867 13.1635 16.9867 15.1421V15.3621C16.9867 18.31 14.5303 20.6997 11.5002 20.6997C8.47007 20.6997 6.01368 18.31 6.01368 15.3621V15.1425C6.01368 13.1638 4.93071 11.3348 3.1713 10.342L2.99984 10.2453C0.377059 8.76539 -0.522046 5.50096 0.988753 2.94355C2.50805 0.371758 5.88659 -0.50893 8.52411 0.979297L8.65958 1.05573C10.4161 2.04688 12.5838 2.04688 14.3404 1.05573L14.4759 0.979269C17.1134 -0.508958 20.492 0.37173 22.0112 2.94352Z" fill="white"/>
<path d="M22.0112 2.94352C23.522 5.50093 22.6229 8.76536 20.0002 10.2453L19.8289 10.3419C18.0696 11.3346 16.9867 13.1635 16.9867 15.1421V15.3621C16.9867 18.31 14.5303 20.6997 11.5002 20.6997C8.47007 20.6997 6.01368 18.31 6.01368 15.3621V15.1425C6.01368 13.1638 4.93071 11.3348 3.1713 10.342L2.99984 10.2453C0.377059 8.76539 -0.522046 5.50096 0.988753 2.94355C2.50805 0.371758 5.88659 -0.50893 8.52411 0.979297L8.65958 1.05573C10.4161 2.04688 12.5838 2.04688 14.3404 1.05573L14.4759 0.979269C17.1134 -0.508958 20.492 0.37173 22.0112 2.94352Z" fill="url(#paint0_linear_399_15162)"/>
<path d="M22.0112 2.94352C23.522 5.50093 22.6229 8.76536 20.0002 10.2453L19.8289 10.3419C18.0696 11.3346 16.9867 13.1635 16.9867 15.1421V15.3621C16.9867 18.31 14.5303 20.6997 11.5002 20.6997C8.47007 20.6997 6.01368 18.31 6.01368 15.3621V15.1425C6.01368 13.1638 4.93071 11.3348 3.1713 10.342L2.99984 10.2453C0.377059 8.76539 -0.522046 5.50096 0.988753 2.94355C2.50805 0.371758 5.88659 -0.50893 8.52411 0.979297L8.65958 1.05573C10.4161 2.04688 12.5838 2.04688 14.3404 1.05573L14.4759 0.979269C17.1134 -0.508958 20.492 0.37173 22.0112 2.94352Z" stroke="url(#paint1_linear_399_15162)" stroke-width="0.5" stroke-linecap="square"/>
<defs>
<linearGradient id="paint0_linear_399_15162" x1="11.5" y1="-2.30003" x2="12.1534" y2="28.3656" gradientUnits="userSpaceOnUse">
<stop stop-color="white"/>
<stop offset="1" stop-color="#80B2FF"/>
</linearGradient>
<linearGradient id="paint1_linear_399_15162" x1="12.1247" y1="25.8107" x2="12.1247" y2="-2.93891" gradientUnits="userSpaceOnUse">
<stop stop-color="white" stop-opacity="0"/>
<stop offset="1" stop-color="white"/>
</linearGradient>
</defs>
</svg>
