<svg width="22" height="22" viewBox="0 0 22 22" fill="none" xmlns="http://www.w3.org/2000/svg">
<path d="M0.15039 11C0.15039 5.00771 5.00771 0.150391 11 0.15039C16.9923 0.15039 21.8496 5.00771 21.8496 11C21.8496 16.9923 16.9923 21.8496 11 21.8496C5.00771 21.8496 0.15039 16.9923 0.15039 11ZM4.32812 10.7041C3.98594 10.7523 3.9858 11.2477 4.32812 11.2959C5.70462 11.4886 6.72464 11.6315 7.51367 11.8379C8.29872 12.0433 8.84031 12.3071 9.2666 12.7334C9.69289 13.1597 9.95674 13.7013 10.1621 14.4863C10.3685 15.2754 10.5114 16.2954 10.7041 17.6719C10.7523 18.0141 11.2477 18.0141 11.2959 17.6719C11.4886 16.2954 11.6315 15.2754 11.8379 14.4863C12.0433 13.7013 12.3071 13.1597 12.7334 12.7334C13.1597 12.3071 13.7013 12.0433 14.4863 11.8379C15.2754 11.6315 16.2954 11.4886 17.6719 11.2959C18.0141 11.2477 18.0141 10.7523 17.6719 10.7041C16.2954 10.5114 15.2754 10.3685 14.4863 10.1621C13.7013 9.95674 13.1597 9.69288 12.7334 9.2666C12.3071 8.84032 12.0433 8.29871 11.8379 7.51367C11.6315 6.72464 11.4886 5.70462 11.2959 4.32812C11.2477 3.98578 10.7523 3.9859 10.7041 4.32812C10.5114 5.70462 10.3685 6.72464 10.1621 7.51367C9.95673 8.29871 9.69289 8.84032 9.2666 9.2666C8.84031 9.69288 8.29872 9.95674 7.51367 10.1621C6.72464 10.3685 5.70462 10.5114 4.32812 10.7041Z" fill="white"/>
<path d="M0.15039 11C0.15039 5.00771 5.00771 0.150391 11 0.15039C16.9923 0.15039 21.8496 5.00771 21.8496 11C21.8496 16.9923 16.9923 21.8496 11 21.8496C5.00771 21.8496 0.15039 16.9923 0.15039 11ZM4.32812 10.7041C3.98594 10.7523 3.9858 11.2477 4.32812 11.2959C5.70462 11.4886 6.72464 11.6315 7.51367 11.8379C8.29872 12.0433 8.84031 12.3071 9.2666 12.7334C9.69289 13.1597 9.95674 13.7013 10.1621 14.4863C10.3685 15.2754 10.5114 16.2954 10.7041 17.6719C10.7523 18.0141 11.2477 18.0141 11.2959 17.6719C11.4886 16.2954 11.6315 15.2754 11.8379 14.4863C12.0433 13.7013 12.3071 13.1597 12.7334 12.7334C13.1597 12.3071 13.7013 12.0433 14.4863 11.8379C15.2754 11.6315 16.2954 11.4886 17.6719 11.2959C18.0141 11.2477 18.0141 10.7523 17.6719 10.7041C16.2954 10.5114 15.2754 10.3685 14.4863 10.1621C13.7013 9.95674 13.1597 9.69288 12.7334 9.2666C12.3071 8.84032 12.0433 8.29871 11.8379 7.51367C11.6315 6.72464 11.4886 5.70462 11.2959 4.32812C11.2477 3.98578 10.7523 3.9859 10.7041 4.32812C10.5114 5.70462 10.3685 6.72464 10.1621 7.51367C9.95673 8.29871 9.69289 8.84032 9.2666 9.2666C8.84031 9.69288 8.29872 9.95674 7.51367 10.1621C6.72464 10.3685 5.70462 10.5114 4.32812 10.7041Z" fill="url(#paint0_linear_399_15167)"/>
<path d="M0.15039 11C0.15039 5.00771 5.00771 0.150391 11 0.15039C16.9923 0.15039 21.8496 5.00771 21.8496 11C21.8496 16.9923 16.9923 21.8496 11 21.8496C5.00771 21.8496 0.15039 16.9923 0.15039 11ZM4.32812 10.7041C3.98594 10.7523 3.9858 11.2477 4.32812 11.2959C5.70462 11.4886 6.72464 11.6315 7.51367 11.8379C8.29872 12.0433 8.84031 12.3071 9.2666 12.7334C9.69289 13.1597 9.95674 13.7013 10.1621 14.4863C10.3685 15.2754 10.5114 16.2954 10.7041 17.6719C10.7523 18.0141 11.2477 18.0141 11.2959 17.6719C11.4886 16.2954 11.6315 15.2754 11.8379 14.4863C12.0433 13.7013 12.3071 13.1597 12.7334 12.7334C13.1597 12.3071 13.7013 12.0433 14.4863 11.8379C15.2754 11.6315 16.2954 11.4886 17.6719 11.2959C18.0141 11.2477 18.0141 10.7523 17.6719 10.7041C16.2954 10.5114 15.2754 10.3685 14.4863 10.1621C13.7013 9.95674 13.1597 9.69288 12.7334 9.2666C12.3071 8.84032 12.0433 8.29871 11.8379 7.51367C11.6315 6.72464 11.4886 5.70462 11.2959 4.32812C11.2477 3.98578 10.7523 3.9859 10.7041 4.32812C10.5114 5.70462 10.3685 6.72464 10.1621 7.51367C9.95673 8.29871 9.69289 8.84032 9.2666 9.2666C8.84031 9.69288 8.29872 9.95674 7.51367 10.1621C6.72464 10.3685 5.70462 10.5114 4.32812 10.7041Z" stroke="url(#paint1_linear_399_15167)" stroke-width="0.3"/>
<defs>
<linearGradient id="paint0_linear_399_15167" x1="10.5" y1="0.999999" x2="10.6057" y2="22.4995" gradientUnits="userSpaceOnUse">
<stop stop-color="white"/>
<stop offset="1" stop-color="#80B2FF"/>
</linearGradient>
<linearGradient id="paint1_linear_399_15167" x1="11" y1="1.42652e-06" x2="11" y2="22" gradientUnits="userSpaceOnUse">
<stop stop-color="white"/>
<stop offset="1" stop-color="white" stop-opacity="0"/>
</linearGradient>
</defs>
</svg>
