<svg width="22" height="22" viewBox="0 0 22 22" fill="none" xmlns="http://www.w3.org/2000/svg">
<g clip-path="url(#clip0_399_15171)">
<path d="M0.330078 15.0996H13.9697C14.0169 15.0996 14.0442 15.1361 14.043 15.168C14.0061 15.9653 13.8305 16.7513 13.5244 17.4902C13.1777 18.3274 12.67 19.0888 12.0293 19.7295C11.3886 20.3702 10.6271 20.8779 9.79004 21.2246C8.95312 21.5712 8.05625 21.75 7.15039 21.75C6.24434 21.75 5.34685 21.5713 4.50977 21.2246C3.67263 20.8779 2.91123 20.3702 2.27051 19.7295C1.62978 19.0888 1.12215 18.3274 0.775391 17.4902C0.469342 16.7513 0.294638 15.9653 0.257812 15.168C0.25654 15.1361 0.28285 15.0996 0.330078 15.0996ZM15.168 7.95704C15.9653 7.99387 16.7513 8.16953 17.4902 8.4756C18.3274 8.82236 19.0888 9.32999 19.7295 9.97072C20.37 10.6113 20.8779 11.3721 21.2246 12.209C21.5713 13.046 21.75 13.9436 21.75 14.8496C21.75 15.7557 21.5713 16.6532 21.2246 17.4902C20.8779 18.3274 20.3702 19.0888 19.7295 19.7295C19.0888 20.3702 18.3274 20.8779 17.4902 21.2246C16.7513 21.5307 15.9653 21.7054 15.168 21.7422C15.1361 21.7435 15.0996 21.7172 15.0996 21.6699V8.03029C15.0996 7.98308 15.1361 7.95579 15.168 7.95704ZM6.83203 0.257826C6.86394 0.256573 6.90039 0.28288 6.90039 0.330091V13.9697C6.90039 14.0169 6.86393 14.0442 6.83203 14.043C6.03468 14.0062 5.2487 13.8305 4.50977 13.5244C3.67262 13.1777 2.91123 12.67 2.27051 12.0293C1.62983 11.3886 1.12213 10.6272 0.775391 9.79005C0.428777 8.95313 0.250052 8.05627 0.25 7.1504C0.25 6.24435 0.428685 5.34687 0.775391 4.50978C1.12215 3.67263 1.62978 2.91124 2.27051 2.27052C2.91123 1.6298 3.67262 1.12216 4.50977 0.775404C5.24868 0.469362 6.03471 0.294651 6.83203 0.257826ZM14.8496 0.250013C15.7557 0.250013 16.6531 0.428691 17.4902 0.775404C18.3274 1.12216 19.0888 1.6298 19.7295 2.27052C20.3702 2.91124 20.8779 3.67264 21.2246 4.50978C21.5306 5.24869 21.7054 6.03472 21.7422 6.83204C21.7434 6.86395 21.7171 6.9004 21.6699 6.9004H8.03027C7.98308 6.9004 7.9558 6.86394 7.95703 6.83204C7.99386 6.03469 8.16953 5.24871 8.47559 4.50978C8.82234 3.67263 9.32998 2.91124 9.9707 2.27052C10.6113 1.62997 11.3721 1.12214 12.209 0.775404C13.046 0.428694 13.9436 0.250062 14.8496 0.250013Z" fill="white"/>
<path d="M0.330078 15.0996H13.9697C14.0169 15.0996 14.0442 15.1361 14.043 15.168C14.0061 15.9653 13.8305 16.7513 13.5244 17.4902C13.1777 18.3274 12.67 19.0888 12.0293 19.7295C11.3886 20.3702 10.6271 20.8779 9.79004 21.2246C8.95312 21.5712 8.05625 21.75 7.15039 21.75C6.24434 21.75 5.34685 21.5713 4.50977 21.2246C3.67263 20.8779 2.91123 20.3702 2.27051 19.7295C1.62978 19.0888 1.12215 18.3274 0.775391 17.4902C0.469342 16.7513 0.294638 15.9653 0.257812 15.168C0.25654 15.1361 0.28285 15.0996 0.330078 15.0996ZM15.168 7.95704C15.9653 7.99387 16.7513 8.16953 17.4902 8.4756C18.3274 8.82236 19.0888 9.32999 19.7295 9.97072C20.37 10.6113 20.8779 11.3721 21.2246 12.209C21.5713 13.046 21.75 13.9436 21.75 14.8496C21.75 15.7557 21.5713 16.6532 21.2246 17.4902C20.8779 18.3274 20.3702 19.0888 19.7295 19.7295C19.0888 20.3702 18.3274 20.8779 17.4902 21.2246C16.7513 21.5307 15.9653 21.7054 15.168 21.7422C15.1361 21.7435 15.0996 21.7172 15.0996 21.6699V8.03029C15.0996 7.98308 15.1361 7.95579 15.168 7.95704ZM6.83203 0.257826C6.86394 0.256573 6.90039 0.28288 6.90039 0.330091V13.9697C6.90039 14.0169 6.86393 14.0442 6.83203 14.043C6.03468 14.0062 5.2487 13.8305 4.50977 13.5244C3.67262 13.1777 2.91123 12.67 2.27051 12.0293C1.62983 11.3886 1.12213 10.6272 0.775391 9.79005C0.428777 8.95313 0.250052 8.05627 0.25 7.1504C0.25 6.24435 0.428685 5.34687 0.775391 4.50978C1.12215 3.67263 1.62978 2.91124 2.27051 2.27052C2.91123 1.6298 3.67262 1.12216 4.50977 0.775404C5.24868 0.469362 6.03471 0.294651 6.83203 0.257826ZM14.8496 0.250013C15.7557 0.250013 16.6531 0.428691 17.4902 0.775404C18.3274 1.12216 19.0888 1.6298 19.7295 2.27052C20.3702 2.91124 20.8779 3.67264 21.2246 4.50978C21.5306 5.24869 21.7054 6.03472 21.7422 6.83204C21.7434 6.86395 21.7171 6.9004 21.6699 6.9004H8.03027C7.98308 6.9004 7.9558 6.86394 7.95703 6.83204C7.99386 6.03469 8.16953 5.24871 8.47559 4.50978C8.82234 3.67263 9.32998 2.91124 9.9707 2.27052C10.6113 1.62997 11.3721 1.12214 12.209 0.775404C13.046 0.428694 13.9436 0.250062 14.8496 0.250013Z" fill="url(#paint0_linear_399_15171)"/>
<path d="M0.330078 15.0996H13.9697C14.0169 15.0996 14.0442 15.1361 14.043 15.168C14.0061 15.9653 13.8305 16.7513 13.5244 17.4902C13.1777 18.3274 12.67 19.0888 12.0293 19.7295C11.3886 20.3702 10.6271 20.8779 9.79004 21.2246C8.95312 21.5712 8.05625 21.75 7.15039 21.75C6.24434 21.75 5.34685 21.5713 4.50977 21.2246C3.67263 20.8779 2.91123 20.3702 2.27051 19.7295C1.62978 19.0888 1.12215 18.3274 0.775391 17.4902C0.469342 16.7513 0.294638 15.9653 0.257812 15.168C0.25654 15.1361 0.28285 15.0996 0.330078 15.0996ZM15.168 7.95704C15.9653 7.99387 16.7513 8.16953 17.4902 8.4756C18.3274 8.82236 19.0888 9.32999 19.7295 9.97072C20.37 10.6113 20.8779 11.3721 21.2246 12.209C21.5713 13.046 21.75 13.9436 21.75 14.8496C21.75 15.7557 21.5713 16.6532 21.2246 17.4902C20.8779 18.3274 20.3702 19.0888 19.7295 19.7295C19.0888 20.3702 18.3274 20.8779 17.4902 21.2246C16.7513 21.5307 15.9653 21.7054 15.168 21.7422C15.1361 21.7435 15.0996 21.7172 15.0996 21.6699V8.03029C15.0996 7.98308 15.1361 7.95579 15.168 7.95704ZM6.83203 0.257826C6.86394 0.256573 6.90039 0.28288 6.90039 0.330091V13.9697C6.90039 14.0169 6.86393 14.0442 6.83203 14.043C6.03468 14.0062 5.2487 13.8305 4.50977 13.5244C3.67262 13.1777 2.91123 12.67 2.27051 12.0293C1.62983 11.3886 1.12213 10.6272 0.775391 9.79005C0.428777 8.95313 0.250052 8.05627 0.25 7.1504C0.25 6.24435 0.428685 5.34687 0.775391 4.50978C1.12215 3.67263 1.62978 2.91124 2.27051 2.27052C2.91123 1.6298 3.67262 1.12216 4.50977 0.775404C5.24868 0.469362 6.03471 0.294651 6.83203 0.257826ZM14.8496 0.250013C15.7557 0.250013 16.6531 0.428691 17.4902 0.775404C18.3274 1.12216 19.0888 1.6298 19.7295 2.27052C20.3702 2.91124 20.8779 3.67264 21.2246 4.50978C21.5306 5.24869 21.7054 6.03472 21.7422 6.83204C21.7434 6.86395 21.7171 6.9004 21.6699 6.9004H8.03027C7.98308 6.9004 7.9558 6.86394 7.95703 6.83204C7.99386 6.03469 8.16953 5.24871 8.47559 4.50978C8.82234 3.67263 9.32998 2.91124 9.9707 2.27052C10.6113 1.62997 11.3721 1.12214 12.209 0.775404C13.046 0.428694 13.9436 0.250062 14.8496 0.250013Z" stroke="url(#paint1_linear_399_15171)" stroke-width="0.5"/>
</g>
<defs>
<linearGradient id="paint0_linear_399_15171" x1="11" y1="-2.74998" x2="11.7733" y2="30.2462" gradientUnits="userSpaceOnUse">
<stop stop-color="white"/>
<stop offset="1" stop-color="#80B2FF"/>
</linearGradient>
<linearGradient id="paint1_linear_399_15171" x1="11.6111" y1="27.5" x2="11.6111" y2="-3.43748" gradientUnits="userSpaceOnUse">
<stop stop-color="white" stop-opacity="0"/>
<stop offset="1" stop-color="white"/>
</linearGradient>
<clipPath id="clip0_399_15171">
<rect width="22" height="22" fill="white"/>
</clipPath>
</defs>
</svg>
