<svg width="22" height="22" viewBox="0 0 22 22" fill="none" xmlns="http://www.w3.org/2000/svg">
<path d="M3.2998 15.6504C4.98427 15.6504 6.34961 17.0157 6.34961 18.7002C6.3495 20.3846 4.98421 21.75 3.2998 21.75C1.61549 21.7499 0.250105 20.3845 0.25 18.7002C0.25 17.0158 1.61543 15.6505 3.2998 15.6504ZM18.7002 15.6504C20.3846 15.6505 21.75 17.0158 21.75 18.7002C21.7499 20.3845 20.3845 21.7499 18.7002 21.75C17.0158 21.75 15.6505 20.3846 15.6504 18.7002C15.6504 17.0157 17.0157 15.6504 18.7002 15.6504ZM11 5.63965C13.9602 5.63965 16.3604 8.03975 16.3604 11C16.3604 13.9602 13.9602 16.3604 11 16.3604C8.03975 16.3604 5.63965 13.9602 5.63965 11C5.63965 8.03975 8.03975 5.63965 11 5.63965ZM3.2998 0.25C4.98421 0.25 6.3495 1.61543 6.34961 3.2998C6.34961 4.98427 4.98427 6.34961 3.2998 6.34961C1.61543 6.3495 0.25 4.98421 0.25 3.2998C0.250106 1.61549 1.61549 0.250106 3.2998 0.25ZM18.7002 0.25C20.3845 0.250105 21.7499 1.61549 21.75 3.2998C21.75 4.98421 20.3846 6.3495 18.7002 6.34961C17.0157 6.34961 15.6504 4.98427 15.6504 3.2998C15.6505 1.61543 17.0158 0.25 18.7002 0.25Z" fill="white"/>
<path d="M3.2998 15.6504C4.98427 15.6504 6.34961 17.0157 6.34961 18.7002C6.3495 20.3846 4.98421 21.75 3.2998 21.75C1.61549 21.7499 0.250105 20.3845 0.25 18.7002C0.25 17.0158 1.61543 15.6505 3.2998 15.6504ZM18.7002 15.6504C20.3846 15.6505 21.75 17.0158 21.75 18.7002C21.7499 20.3845 20.3845 21.7499 18.7002 21.75C17.0158 21.75 15.6505 20.3846 15.6504 18.7002C15.6504 17.0157 17.0157 15.6504 18.7002 15.6504ZM11 5.63965C13.9602 5.63965 16.3604 8.03975 16.3604 11C16.3604 13.9602 13.9602 16.3604 11 16.3604C8.03975 16.3604 5.63965 13.9602 5.63965 11C5.63965 8.03975 8.03975 5.63965 11 5.63965ZM3.2998 0.25C4.98421 0.25 6.3495 1.61543 6.34961 3.2998C6.34961 4.98427 4.98427 6.34961 3.2998 6.34961C1.61543 6.3495 0.25 4.98421 0.25 3.2998C0.250106 1.61549 1.61549 0.250106 3.2998 0.25ZM18.7002 0.25C20.3845 0.250105 21.7499 1.61549 21.75 3.2998C21.75 4.98421 20.3846 6.3495 18.7002 6.34961C17.0157 6.34961 15.6504 4.98427 15.6504 3.2998C15.6505 1.61543 17.0158 0.25 18.7002 0.25Z" fill="url(#paint0_linear_399_15165)"/>
<path d="M3.2998 15.6504C4.98427 15.6504 6.34961 17.0157 6.34961 18.7002C6.3495 20.3846 4.98421 21.75 3.2998 21.75C1.61549 21.7499 0.250105 20.3845 0.25 18.7002C0.25 17.0158 1.61543 15.6505 3.2998 15.6504ZM18.7002 15.6504C20.3846 15.6505 21.75 17.0158 21.75 18.7002C21.7499 20.3845 20.3845 21.7499 18.7002 21.75C17.0158 21.75 15.6505 20.3846 15.6504 18.7002C15.6504 17.0157 17.0157 15.6504 18.7002 15.6504ZM11 5.63965C13.9602 5.63965 16.3604 8.03975 16.3604 11C16.3604 13.9602 13.9602 16.3604 11 16.3604C8.03975 16.3604 5.63965 13.9602 5.63965 11C5.63965 8.03975 8.03975 5.63965 11 5.63965ZM3.2998 0.25C4.98421 0.25 6.3495 1.61543 6.34961 3.2998C6.34961 4.98427 4.98427 6.34961 3.2998 6.34961C1.61543 6.3495 0.25 4.98421 0.25 3.2998C0.250106 1.61549 1.61549 0.250106 3.2998 0.25ZM18.7002 0.25C20.3845 0.250105 21.7499 1.61549 21.75 3.2998C21.75 4.98421 20.3846 6.3495 18.7002 6.34961C17.0157 6.34961 15.6504 4.98427 15.6504 3.2998C15.6505 1.61543 17.0158 0.25 18.7002 0.25Z" stroke="url(#paint1_linear_399_15165)" stroke-width="0.5"/>
<defs>
<linearGradient id="paint0_linear_399_15165" x1="11" y1="-2.75" x2="11.7733" y2="30.2462" gradientUnits="userSpaceOnUse">
<stop stop-color="white"/>
<stop offset="1" stop-color="#80B2FF"/>
</linearGradient>
<linearGradient id="paint1_linear_399_15165" x1="11.6111" y1="27.5" x2="11.6111" y2="-3.4375" gradientUnits="userSpaceOnUse">
<stop stop-color="white" stop-opacity="0"/>
<stop offset="1" stop-color="white"/>
</linearGradient>
</defs>
</svg>
