<svg width="23" height="21" viewBox="0 0 23 21" fill="none" xmlns="http://www.w3.org/2000/svg">
<path d="M6.59278 10.4778C2.84144 8.63696 0.255556 4.75129 0.255556 0.255556H5.87778C5.87778 3.39199 8.39493 5.93457 11.5 5.93457C14.6051 5.93457 17.1222 3.39199 17.1222 0.255556H22.7444C22.7444 4.75129 20.1586 8.63696 16.4072 10.4778C20.1586 12.3186 22.7444 16.2043 22.7444 20.7H17.1222C17.1222 17.5636 14.6051 15.021 11.5 15.021C8.39493 15.021 5.87778 17.5636 5.87778 20.7H0.255556C0.255556 16.2043 2.84144 12.3186 6.59278 10.4778Z" fill="white"/>
<path d="M6.59278 10.4778C2.84144 8.63696 0.255556 4.75129 0.255556 0.255556H5.87778C5.87778 3.39199 8.39493 5.93457 11.5 5.93457C14.6051 5.93457 17.1222 3.39199 17.1222 0.255556H22.7444C22.7444 4.75129 20.1586 8.63696 16.4072 10.4778C20.1586 12.3186 22.7444 16.2043 22.7444 20.7H17.1222C17.1222 17.5636 14.6051 15.021 11.5 15.021C8.39493 15.021 5.87778 17.5636 5.87778 20.7H0.255556C0.255556 16.2043 2.84144 12.3186 6.59278 10.4778Z" fill="url(#paint0_linear_399_15166)"/>
<path d="M6.59278 10.4778C2.84144 8.63696 0.255556 4.75129 0.255556 0.255556H5.87778C5.87778 3.39199 8.39493 5.93457 11.5 5.93457C14.6051 5.93457 17.1222 3.39199 17.1222 0.255556H22.7444C22.7444 4.75129 20.1586 8.63696 16.4072 10.4778C20.1586 12.3186 22.7444 16.2043 22.7444 20.7H17.1222C17.1222 17.5636 14.6051 15.021 11.5 15.021C8.39493 15.021 5.87778 17.5636 5.87778 20.7H0.255556C0.255556 16.2043 2.84144 12.3186 6.59278 10.4778Z" stroke="url(#paint1_linear_399_15166)" stroke-width="0.5"/>
<defs>
<linearGradient id="paint0_linear_399_15166" x1="11.5" y1="-2.3" x2="12.1534" y2="28.3661" gradientUnits="userSpaceOnUse">
<stop stop-color="white"/>
<stop offset="1" stop-color="#80B2FF"/>
</linearGradient>
<linearGradient id="paint1_linear_399_15166" x1="12.1247" y1="25.8111" x2="12.1247" y2="-2.93889" gradientUnits="userSpaceOnUse">
<stop stop-color="white" stop-opacity="0"/>
<stop offset="1" stop-color="white"/>
</linearGradient>
</defs>
</svg>
