<svg width="22" height="22" viewBox="0 0 22 22" fill="none" xmlns="http://www.w3.org/2000/svg">
<path d="M10.2871 0.788086C10.4919 0.0707438 11.5081 0.0707458 11.7129 0.788086C11.7132 0.789079 11.7141 0.791862 11.7158 0.797852C11.7204 0.81415 11.7234 0.823169 11.7256 0.831055C13.0209 5.40468 16.5953 8.97913 21.1689 10.2744C21.1768 10.2766 21.1858 10.2796 21.2021 10.2842C21.2081 10.2859 21.2109 10.2868 21.2119 10.2871C21.9293 10.4919 21.9293 11.5081 21.2119 11.7129C21.2109 11.7132 21.2081 11.7141 21.2021 11.7158H21.2012C21.1851 11.7203 21.1768 11.7234 21.1689 11.7256C16.5953 13.0209 13.0209 16.5953 11.7256 21.1689C11.7234 21.1768 11.7204 21.1859 11.7158 21.2021C11.7141 21.2081 11.7132 21.2109 11.7129 21.2119C11.5081 21.9293 10.4919 21.9293 10.2871 21.2119C10.2868 21.2109 10.2859 21.2082 10.2842 21.2021V21.2012C10.2797 21.1851 10.2766 21.1768 10.2744 21.1689C8.97913 16.5953 5.40468 13.0209 0.831055 11.7256C0.823169 11.7234 0.814151 11.7204 0.797852 11.7158C0.791866 11.7141 0.78908 11.7132 0.788086 11.7129C0.0707458 11.5081 0.0707438 10.4919 0.788086 10.2871C0.789077 10.2868 0.791805 10.2859 0.797852 10.2842C0.814156 10.2796 0.823186 10.2766 0.831055 10.2744C5.40468 8.97913 8.97913 5.40468 10.2744 0.831055C10.2766 0.823186 10.2796 0.814157 10.2842 0.797852C10.2859 0.791809 10.2868 0.789078 10.2871 0.788086Z" fill="white"/>
<path d="M10.2871 0.788086C10.4919 0.0707438 11.5081 0.0707458 11.7129 0.788086C11.7132 0.789079 11.7141 0.791862 11.7158 0.797852C11.7204 0.81415 11.7234 0.823169 11.7256 0.831055C13.0209 5.40468 16.5953 8.97913 21.1689 10.2744C21.1768 10.2766 21.1858 10.2796 21.2021 10.2842C21.2081 10.2859 21.2109 10.2868 21.2119 10.2871C21.9293 10.4919 21.9293 11.5081 21.2119 11.7129C21.2109 11.7132 21.2081 11.7141 21.2021 11.7158H21.2012C21.1851 11.7203 21.1768 11.7234 21.1689 11.7256C16.5953 13.0209 13.0209 16.5953 11.7256 21.1689C11.7234 21.1768 11.7204 21.1859 11.7158 21.2021C11.7141 21.2081 11.7132 21.2109 11.7129 21.2119C11.5081 21.9293 10.4919 21.9293 10.2871 21.2119C10.2868 21.2109 10.2859 21.2082 10.2842 21.2021V21.2012C10.2797 21.1851 10.2766 21.1768 10.2744 21.1689C8.97913 16.5953 5.40468 13.0209 0.831055 11.7256C0.823169 11.7234 0.814151 11.7204 0.797852 11.7158C0.791866 11.7141 0.78908 11.7132 0.788086 11.7129C0.0707458 11.5081 0.0707438 10.4919 0.788086 10.2871C0.789077 10.2868 0.791805 10.2859 0.797852 10.2842C0.814156 10.2796 0.823186 10.2766 0.831055 10.2744C5.40468 8.97913 8.97913 5.40468 10.2744 0.831055C10.2766 0.823186 10.2796 0.814157 10.2842 0.797852C10.2859 0.791809 10.2868 0.789078 10.2871 0.788086Z" fill="url(#paint0_linear_399_15170)"/>
<path d="M10.2871 0.788086C10.4919 0.0707438 11.5081 0.0707458 11.7129 0.788086C11.7132 0.789079 11.7141 0.791862 11.7158 0.797852C11.7204 0.81415 11.7234 0.823169 11.7256 0.831055C13.0209 5.40468 16.5953 8.97913 21.1689 10.2744C21.1768 10.2766 21.1858 10.2796 21.2021 10.2842C21.2081 10.2859 21.2109 10.2868 21.2119 10.2871C21.9293 10.4919 21.9293 11.5081 21.2119 11.7129C21.2109 11.7132 21.2081 11.7141 21.2021 11.7158H21.2012C21.1851 11.7203 21.1768 11.7234 21.1689 11.7256C16.5953 13.0209 13.0209 16.5953 11.7256 21.1689C11.7234 21.1768 11.7204 21.1859 11.7158 21.2021C11.7141 21.2081 11.7132 21.2109 11.7129 21.2119C11.5081 21.9293 10.4919 21.9293 10.2871 21.2119C10.2868 21.2109 10.2859 21.2082 10.2842 21.2021V21.2012C10.2797 21.1851 10.2766 21.1768 10.2744 21.1689C8.97913 16.5953 5.40468 13.0209 0.831055 11.7256C0.823169 11.7234 0.814151 11.7204 0.797852 11.7158C0.791866 11.7141 0.78908 11.7132 0.788086 11.7129C0.0707458 11.5081 0.0707438 10.4919 0.788086 10.2871C0.789077 10.2868 0.791805 10.2859 0.797852 10.2842C0.814156 10.2796 0.823186 10.2766 0.831055 10.2744C5.40468 8.97913 8.97913 5.40468 10.2744 0.831055C10.2766 0.823186 10.2796 0.814157 10.2842 0.797852C10.2859 0.791809 10.2868 0.789078 10.2871 0.788086Z" stroke="url(#paint1_linear_399_15170)" stroke-width="0.5"/>
<defs>
<linearGradient id="paint0_linear_399_15170" x1="11" y1="-2.75" x2="11.7733" y2="30.2462" gradientUnits="userSpaceOnUse">
<stop stop-color="white"/>
<stop offset="1" stop-color="#80B2FF"/>
</linearGradient>
<linearGradient id="paint1_linear_399_15170" x1="11.6111" y1="27.5" x2="11.6111" y2="-3.4375" gradientUnits="userSpaceOnUse">
<stop stop-color="white" stop-opacity="0"/>
<stop offset="1" stop-color="white"/>
</linearGradient>
</defs>
</svg>
