<svg width="20" height="21" viewBox="0 0 20 21" fill="none" xmlns="http://www.w3.org/2000/svg">
<path d="M15.7051 10.6465C15.7051 10.7363 15.5703 13.3867 18.4902 14.7793C17.9512 16.3965 16.0645 20.0801 13.8633 20.125C12.6055 20.125 11.8867 19.3164 10.4492 19.3164C8.9668 19.3164 8.1582 20.0801 7.03516 20.125C4.87891 20.1699 2.8125 16.127 2.22852 14.5098C1.7793 13.252 1.55469 12.0391 1.55469 10.8711C1.55469 6.87305 4.25 4.89648 6.76562 4.85156C7.97852 4.85156 9.50586 5.75 10.1797 5.75C10.8086 5.75 12.5605 4.7168 14.1328 4.80664C15.8398 4.94141 17.0977 5.61523 17.9512 6.82812C16.4688 7.72656 15.7051 8.98438 15.7051 10.6465ZM13.1895 3.2793C12.291 4.26758 11.2129 4.89648 10.0449 4.80664C9.95508 3.54883 10.4043 2.4707 11.2129 1.57227C11.9316 0.71875 13.1445 0.0449219 14.2676 0C14.2676 0.494141 14.4023 1.79688 13.1895 3.2793Z" fill="white"/>
</svg>
