<svg width="22" height="20" viewBox="0 0 22 20" fill="none" xmlns="http://www.w3.org/2000/svg">
<path d="M11 13.918C11.6875 13.918 12.418 13.6602 13.0195 13.1875L22 6.22656V15.9375C22 17.0977 21.0547 18 19.9375 18H2.0625C0.902344 18 0 17.0977 0 15.9375V6.22656L8.9375 13.1875C9.53906 13.6602 10.2695 13.918 11 13.918ZM0.6875 5.02344C0.257812 4.67969 0 4.16406 0 3.5625C0 2.44531 0.902344 1.5 2.0625 1.5H19.9375C21.0547 1.5 22 2.44531 22 3.5625C22 4.16406 21.6992 4.67969 21.2695 5.02344L12.1602 12.1133C11.4727 12.6289 10.4844 12.6289 9.79688 12.1133L0.6875 5.02344Z" fill="white"/>
</svg>
