<svg width="23" height="22" viewBox="0 0 23 22" fill="none" xmlns="http://www.w3.org/2000/svg">
<path d="M7.45703 17.4746C7.45703 17.3848 7.32227 17.3398 7.1875 17.3398C7.05273 17.3398 6.96289 17.3848 6.96289 17.4746C6.96289 17.6094 7.05273 17.6543 7.23242 17.6543C7.36719 17.6543 7.45703 17.5645 7.45703 17.4746ZM6.06445 17.2949C6.10938 17.2051 6.19922 17.1602 6.33398 17.2051C6.46875 17.25 6.55859 17.3398 6.51367 17.4297C6.51367 17.5195 6.37891 17.5645 6.24414 17.5195C6.10938 17.4746 6.01953 17.3848 6.06445 17.2949ZM8.04102 17.2051C8.17578 17.2051 8.31055 17.25 8.31055 17.3398C8.31055 17.4297 8.2207 17.5195 8.08594 17.5645C7.95117 17.5645 7.86133 17.5195 7.81641 17.4297C7.81641 17.3398 7.90625 17.25 8.04102 17.2051ZM11.0059 0C17.25 0 22.2812 4.7168 22.2812 10.9609C22.2812 15.9473 19.2266 20.2148 14.7344 21.6973C14.1953 21.7871 13.9707 21.4277 13.9707 21.1582C13.9707 20.7988 13.9707 18.9121 13.9707 17.3848C13.9707 16.3516 13.6113 15.6777 13.207 15.3184C15.7227 15.0488 18.373 14.6895 18.373 10.332C18.373 9.11914 17.9238 8.49023 17.2051 7.72656C17.3398 7.41211 17.6992 6.19922 17.1152 4.67188C16.1719 4.35742 14.0156 5.88477 14.0156 5.88477C13.1172 5.61523 12.1289 5.48047 11.1855 5.48047C10.2422 5.48047 9.25391 5.61523 8.35547 5.88477C8.35547 5.88477 6.19922 4.35742 5.25586 4.67188C4.62695 6.19922 5.03125 7.41211 5.12109 7.72656C4.40234 8.49023 4.08789 9.11914 4.08789 10.332C4.08789 14.6895 6.60352 15.0488 9.11914 15.3184C8.80469 15.6328 8.49023 16.127 8.40039 16.8457C7.77148 17.1152 6.10938 17.6094 5.12109 15.9023C4.53711 14.8242 3.41406 14.7344 3.41406 14.7344C2.29102 14.7344 3.32422 15.4082 3.32422 15.4082C4.04297 15.7676 4.58203 17.0703 4.58203 17.0703C5.25586 19.0918 8.40039 18.418 8.40039 18.418C8.40039 19.3613 8.40039 20.8887 8.40039 21.1582C8.40039 21.4727 8.17578 21.832 7.63672 21.6973C3.14453 20.2148 0 15.9473 0 10.9609C0 4.7168 4.76172 0 11.0059 0ZM4.35742 15.498C4.44727 15.4531 4.53711 15.4531 4.58203 15.543C4.67188 15.6328 4.67188 15.7227 4.62695 15.7676C4.58203 15.8125 4.49219 15.8125 4.40234 15.7227C4.3125 15.6328 4.3125 15.543 4.35742 15.498ZM3.86328 15.1387C3.9082 15.0938 3.99805 15.0938 4.08789 15.0938C4.17773 15.1387 4.22266 15.2285 4.17773 15.2734C4.13281 15.3184 4.04297 15.3633 3.99805 15.3184C3.9082 15.2734 3.86328 15.1836 3.86328 15.1387ZM5.3457 16.7109C5.39062 16.666 5.52539 16.666 5.61523 16.7559C5.70508 16.8457 5.75 16.9805 5.70508 17.0703C5.61523 17.1152 5.48047 17.1152 5.39062 17.0254C5.30078 16.9355 5.25586 16.8008 5.3457 16.7109ZM4.80664 16.082C4.89648 15.9922 5.03125 16.0371 5.07617 16.1719C5.16602 16.2617 5.16602 16.3965 5.07617 16.4414C5.03125 16.4863 4.89648 16.4414 4.80664 16.3516C4.76172 16.2168 4.76172 16.127 4.80664 16.082Z" fill="white"/>
</svg>
