<svg width="226" height="265" viewBox="0 0 226 265" fill="none" xmlns="http://www.w3.org/2000/svg">
<g filter="url(#filter0_ddddiiii_1137_4745)">
<rect x="23" y="4" width="180" height="180" rx="46" fill="url(#paint0_linear_1137_4745)"/>
</g>
<g filter="url(#filter1_dii_1137_4745)">
<g filter="url(#filter2_i_1137_4745)">
<path d="M165.98 141.415C160.776 151.164 147.169 159.66 134.322 158.837C92.0164 153.812 75.3235 124.22 47.1455 141.89C45.2446 143.02 43.5025 144.139 41.6021 145.565C41.0605 145.968 40.4059 146.234 39.7197 146.25C39.0339 146.266 38.3793 146.037 37.8836 145.598C37.388 145.159 37.0814 144.536 37.0149 143.854C36.948 143.17 37.1333 142.488 37.4675 141.902C38.784 139.706 40.0274 137.776 41.5883 135.759C51.311 120.762 75.5544 115.34 92.4564 120.406C109.612 124.354 124.595 131.884 134.973 131.979C140.561 132.037 144.785 131.708 151.845 128.019C153.608 127.047 155.244 126.156 157.144 124.876C158.632 123.838 160.35 123.055 162.172 122.885C163.993 122.715 165.753 123.16 167.149 124.184C168.545 125.208 169.498 126.754 169.882 128.542C170.267 130.33 170.037 132.204 169.493 133.935C168.484 136.601 167.524 138.878 165.98 141.415Z" fill="white"/>
<path d="M165.98 141.415C160.776 151.164 147.169 159.66 134.322 158.837C92.0164 153.812 75.3235 124.22 47.1455 141.89C45.2446 143.02 43.5025 144.139 41.6021 145.565C41.0605 145.968 40.4059 146.234 39.7197 146.25C39.0339 146.266 38.3793 146.037 37.8836 145.598C37.388 145.159 37.0814 144.536 37.0149 143.854C36.948 143.17 37.1333 142.488 37.4675 141.902C38.784 139.706 40.0274 137.776 41.5883 135.759C51.311 120.762 75.5544 115.34 92.4564 120.406C109.612 124.354 124.595 131.884 134.973 131.979C140.561 132.037 144.785 131.708 151.845 128.019C153.608 127.047 155.244 126.156 157.144 124.876C158.632 123.838 160.35 123.055 162.172 122.885C163.993 122.715 165.753 123.16 167.149 124.184C168.545 125.208 169.498 126.754 169.882 128.542C170.267 130.33 170.037 132.204 169.493 133.935C168.484 136.601 167.524 138.878 165.98 141.415Z" fill="url(#paint1_radial_1137_4745)"/>
</g>
<path d="M150.497 78.0532C140.46 74.6026 130.399 76.1199 121.951 78.1116C105.18 82.2683 90.0661 89.5045 79.192 88.5637C73.4362 88.0958 68.3706 86.836 61.078 81.8102C59.2859 80.5526 57.5718 79.3594 55.6486 77.7632C54.8938 77.1444 54.0258 76.6292 53.0732 76.419C52.1209 76.2086 51.1683 76.317 50.3649 76.7532C49.5614 77.1894 48.9516 77.9291 48.6093 78.8422C48.2666 79.7556 48.226 80.7642 48.3338 81.7343C48.7776 84.4793 49.2644 86.8814 50.2111 89.5081C53.2855 99.6547 64.5373 110.124 77.4511 110.691C119.007 110.171 142.206 76.3795 162.495 103.055C163.87 104.705 165.089 106.302 166.392 108.262C166.97 109.128 167.816 109.817 168.825 110.137C169.833 110.458 170.91 110.388 171.838 109.935C172.767 109.483 173.485 108.676 173.853 107.685C174.222 106.693 174.2 105.602 173.873 104.613C173.003 102.136 172.168 99.9874 171.05 97.6651C167.322 89.7725 160.679 81.5139 150.497 78.0532Z" fill="white"/>
<path d="M150.497 78.0532C140.46 74.6026 130.399 76.1199 121.951 78.1116C105.18 82.2683 90.0661 89.5045 79.192 88.5637C73.4362 88.0958 68.3706 86.836 61.078 81.8102C59.2859 80.5526 57.5718 79.3594 55.6486 77.7632C54.8938 77.1444 54.0258 76.6292 53.0732 76.419C52.1209 76.2086 51.1683 76.317 50.3649 76.7532C49.5614 77.1894 48.9516 77.9291 48.6093 78.8422C48.2666 79.7556 48.226 80.7642 48.3338 81.7343C48.7776 84.4793 49.2644 86.8814 50.2111 89.5081C53.2855 99.6547 64.5373 110.124 77.4511 110.691C119.007 110.171 142.206 76.3795 162.495 103.055C163.87 104.705 165.089 106.302 166.392 108.262C166.97 109.128 167.816 109.817 168.825 110.137C169.833 110.458 170.91 110.388 171.838 109.935C172.767 109.483 173.485 108.676 173.853 107.685C174.222 106.693 174.2 105.602 173.873 104.613C173.003 102.136 172.168 99.9874 171.05 97.6651C167.322 89.7725 160.679 81.5139 150.497 78.0532Z" fill="url(#paint2_linear_1137_4745)"/>
<path d="M52.6657 46.3462C58.1366 36.509 71.9734 28.2186 84.8418 29.0587C127.464 34.0093 145.162 63.7064 173.927 46.0048C175.876 44.8665 177.656 43.7413 179.6 42.3058C180.145 41.9068 180.803 41.6465 181.49 41.6376C182.177 41.6284 182.83 41.8654 183.322 42.3107C183.813 42.756 184.114 43.3825 184.172 44.0668C184.231 44.7514 184.037 45.4319 183.694 46.0137C182.324 48.2274 181.032 50.1697 179.411 52.2012C169.23 67.2594 144.864 72.4847 127.688 67.5089C110.243 63.5972 94.9774 56.0562 84.1472 55.9157C78.269 55.8383 73.8206 56.2218 66.6344 59.9149C64.8304 60.8958 63.1648 61.7914 61.228 63.0826C59.7329 64.1145 58.0059 64.8843 56.1792 65.0369C54.3534 65.1901 52.5933 64.7254 51.2046 63.6839C49.8158 62.6423 48.8767 61.0828 48.5126 59.2872C48.1475 57.4908 48.4031 55.6174 48.975 53.8931C50.0414 51.2002 51.0521 48.9036 52.6657 46.3462Z" fill="white"/>
<path d="M52.6657 46.3462C58.1366 36.509 71.9734 28.2186 84.8418 29.0587C127.464 34.0093 145.162 63.7064 173.927 46.0048C175.876 44.8665 177.656 43.7413 179.6 42.3058C180.145 41.9068 180.803 41.6465 181.49 41.6376C182.177 41.6284 182.83 41.8654 183.322 42.3107C183.813 42.756 184.114 43.3825 184.172 44.0668C184.231 44.7514 184.037 45.4319 183.694 46.0137C182.324 48.2274 181.032 50.1697 179.411 52.2012C169.23 67.2594 144.864 72.4847 127.688 67.5089C110.243 63.5972 94.9774 56.0562 84.1472 55.9157C78.269 55.8383 73.8206 56.2218 66.6344 59.9149C64.8304 60.8958 63.1648 61.7914 61.228 63.0826C59.7329 64.1145 58.0059 64.8843 56.1792 65.0369C54.3534 65.1901 52.5933 64.7254 51.2046 63.6839C49.8158 62.6423 48.8767 61.0828 48.5126 59.2872C48.1475 57.4908 48.4031 55.6174 48.975 53.8931C50.0414 51.2002 51.0521 48.9036 52.6657 46.3462Z" fill="url(#paint3_linear_1137_4745)"/>
</g>
<defs>
<filter id="filter0_ddddiiii_1137_4745" x="0" y="-1" width="226" height="266" filterUnits="userSpaceOnUse" color-interpolation-filters="sRGB">
<feFlood flood-opacity="0" result="BackgroundImageFix"/>
<feColorMatrix in="SourceAlpha" type="matrix" values="0 0 0 0 0 0 0 0 0 0 0 0 0 0 0 0 0 0 127 0" result="hardAlpha"/>
<feOffset dy="4"/>
<feGaussianBlur stdDeviation="4"/>
<feColorMatrix type="matrix" values="0 0 0 0 0 0 0 0 0 0 0 0 0 0 0 0 0 0 0.25 0"/>
<feBlend mode="normal" in2="BackgroundImageFix" result="effect1_dropShadow_1137_4745"/>
<feColorMatrix in="SourceAlpha" type="matrix" values="0 0 0 0 0 0 0 0 0 0 0 0 0 0 0 0 0 0 127 0" result="hardAlpha"/>
<feOffset dy="15"/>
<feGaussianBlur stdDeviation="7.5"/>
<feColorMatrix type="matrix" values="0 0 0 0 0 0 0 0 0 0 0 0 0 0 0 0 0 0 0.22 0"/>
<feBlend mode="normal" in2="effect1_dropShadow_1137_4745" result="effect2_dropShadow_1137_4745"/>
<feColorMatrix in="SourceAlpha" type="matrix" values="0 0 0 0 0 0 0 0 0 0 0 0 0 0 0 0 0 0 127 0" result="hardAlpha"/>
<feOffset dy="33"/>
<feGaussianBlur stdDeviation="10"/>
<feColorMatrix type="matrix" values="0 0 0 0 0 0 0 0 0 0 0 0 0 0 0 0 0 0 0.13 0"/>
<feBlend mode="normal" in2="effect2_dropShadow_1137_4745" result="effect3_dropShadow_1137_4745"/>
<feColorMatrix in="SourceAlpha" type="matrix" values="0 0 0 0 0 0 0 0 0 0 0 0 0 0 0 0 0 0 127 0" result="hardAlpha"/>
<feOffset dy="58"/>
<feGaussianBlur stdDeviation="11.5"/>
<feColorMatrix type="matrix" values="0 0 0 0 0 0 0 0 0 0 0 0 0 0 0 0 0 0 0.04 0"/>
<feBlend mode="normal" in2="effect3_dropShadow_1137_4745" result="effect4_dropShadow_1137_4745"/>
<feBlend mode="normal" in="SourceGraphic" in2="effect4_dropShadow_1137_4745" result="shape"/>
<feColorMatrix in="SourceAlpha" type="matrix" values="0 0 0 0 0 0 0 0 0 0 0 0 0 0 0 0 0 0 127 0" result="hardAlpha"/>
<feOffset dy="4"/>
<feGaussianBlur stdDeviation="2"/>
<feComposite in2="hardAlpha" operator="arithmetic" k2="-1" k3="1"/>
<feColorMatrix type="matrix" values="0 0 0 0 1 0 0 0 0 1 0 0 0 0 1 0 0 0 0.25 0"/>
<feBlend mode="normal" in2="shape" result="effect5_innerShadow_1137_4745"/>
<feColorMatrix in="SourceAlpha" type="matrix" values="0 0 0 0 0 0 0 0 0 0 0 0 0 0 0 0 0 0 127 0" result="hardAlpha"/>
<feOffset dy="-5"/>
<feGaussianBlur stdDeviation="6.4"/>
<feComposite in2="hardAlpha" operator="arithmetic" k2="-1" k3="1"/>
<feColorMatrix type="matrix" values="0 0 0 0 1 0 0 0 0 1 0 0 0 0 1 0 0 0 0.25 0"/>
<feBlend mode="normal" in2="effect5_innerShadow_1137_4745" result="effect6_innerShadow_1137_4745"/>
<feColorMatrix in="SourceAlpha" type="matrix" values="0 0 0 0 0 0 0 0 0 0 0 0 0 0 0 0 0 0 127 0" result="hardAlpha"/>
<feMorphology radius="3" operator="dilate" in="SourceAlpha" result="effect7_innerShadow_1137_4745"/>
<feOffset dx="-3" dy="-3"/>
<feGaussianBlur stdDeviation="2"/>
<feComposite in2="hardAlpha" operator="arithmetic" k2="-1" k3="1"/>
<feColorMatrix type="matrix" values="0 0 0 0 1 0 0 0 0 1 0 0 0 0 1 0 0 0 0.6 0"/>
<feBlend mode="normal" in2="effect6_innerShadow_1137_4745" result="effect7_innerShadow_1137_4745"/>
<feColorMatrix in="SourceAlpha" type="matrix" values="0 0 0 0 0 0 0 0 0 0 0 0 0 0 0 0 0 0 127 0" result="hardAlpha"/>
<feMorphology radius="4" operator="dilate" in="SourceAlpha" result="effect8_innerShadow_1137_4745"/>
<feOffset dx="5" dy="5"/>
<feGaussianBlur stdDeviation="1"/>
<feComposite in2="hardAlpha" operator="arithmetic" k2="-1" k3="1"/>
<feColorMatrix type="matrix" values="0 0 0 0 1 0 0 0 0 1 0 0 0 0 1 0 0 0 0.6 0"/>
<feBlend mode="normal" in2="effect7_innerShadow_1137_4745" result="effect8_innerShadow_1137_4745"/>
</filter>
<filter id="filter1_dii_1137_4745" x="33.501" y="26.2" width="154.182" height="137.192" filterUnits="userSpaceOnUse" color-interpolation-filters="sRGB">
<feFlood flood-opacity="0" result="BackgroundImageFix"/>
<feColorMatrix in="SourceAlpha" type="matrix" values="0 0 0 0 0 0 0 0 0 0 0 0 0 0 0 0 0 0 127 0" result="hardAlpha"/>
<feOffset dy="1"/>
<feGaussianBlur stdDeviation="1.75"/>
<feComposite in2="hardAlpha" operator="out"/>
<feColorMatrix type="matrix" values="0 0 0 0 0 0 0 0 0 0 0 0 0 0 0 0 0 0 0.25 0"/>
<feBlend mode="normal" in2="BackgroundImageFix" result="effect1_dropShadow_1137_4745"/>
<feBlend mode="normal" in="SourceGraphic" in2="effect1_dropShadow_1137_4745" result="shape"/>
<feColorMatrix in="SourceAlpha" type="matrix" values="0 0 0 0 0 0 0 0 0 0 0 0 0 0 0 0 0 0 127 0" result="hardAlpha"/>
<feOffset dy="-3"/>
<feGaussianBlur stdDeviation="1.4"/>
<feComposite in2="hardAlpha" operator="arithmetic" k2="-1" k3="1"/>
<feColorMatrix type="matrix" values="0 0 0 0 0 0 0 0 0 0 0 0 0 0 0 0 0 0 0.25 0"/>
<feBlend mode="normal" in2="shape" result="effect2_innerShadow_1137_4745"/>
<feColorMatrix in="SourceAlpha" type="matrix" values="0 0 0 0 0 0 0 0 0 0 0 0 0 0 0 0 0 0 127 0" result="hardAlpha"/>
<feOffset dy="2"/>
<feGaussianBlur stdDeviation="0.5"/>
<feComposite in2="hardAlpha" operator="arithmetic" k2="-1" k3="1"/>
<feColorMatrix type="matrix" values="0 0 0 0 1 0 0 0 0 1 0 0 0 0 1 0 0 0 1 0"/>
<feBlend mode="normal" in2="effect2_innerShadow_1137_4745" result="effect3_innerShadow_1137_4745"/>
</filter>
<filter id="filter2_i_1137_4745" x="37.001" y="116.558" width="133.072" height="42.3347" filterUnits="userSpaceOnUse" color-interpolation-filters="sRGB">
<feFlood flood-opacity="0" result="BackgroundImageFix"/>
<feBlend mode="normal" in="SourceGraphic" in2="BackgroundImageFix" result="shape"/>
<feColorMatrix in="SourceAlpha" type="matrix" values="0 0 0 0 0 0 0 0 0 0 0 0 0 0 0 0 0 0 127 0" result="hardAlpha"/>
<feOffset dy="-2"/>
<feGaussianBlur stdDeviation="2"/>
<feComposite in2="hardAlpha" operator="arithmetic" k2="-1" k3="1"/>
<feColorMatrix type="matrix" values="0 0 0 0 1 0 0 0 0 1 0 0 0 0 1 0 0 0 1 0"/>
<feBlend mode="plus-lighter" in2="shape" result="effect1_innerShadow_1137_4745"/>
</filter>
<linearGradient id="paint0_linear_1137_4745" x1="113" y1="4" x2="113" y2="107" gradientUnits="userSpaceOnUse">
<stop stop-color="#333333"/>
<stop offset="1"/>
</linearGradient>
<radialGradient id="paint1_radial_1137_4745" cx="0" cy="0" r="1" gradientUnits="userSpaceOnUse" gradientTransform="translate(113.426 158.485) rotate(-87.6863) scale(48.231 123.709)">
<stop stop-color="white"/>
<stop offset="0.224358" stop-color="#F4F4F4"/>
<stop offset="1" stop-color="#AEAEAE"/>
</radialGradient>
<linearGradient id="paint2_linear_1137_4745" x1="113.823" y1="72.6461" x2="108.517" y2="114.696" gradientUnits="userSpaceOnUse">
<stop offset="0.288462" stop-color="white"/>
<stop offset="1" stop-color="#AEAEAE"/>
</linearGradient>
<linearGradient id="paint3_linear_1137_4745" x1="116.263" y1="29" x2="116.263" y2="69.3346" gradientUnits="userSpaceOnUse">
<stop offset="0.288462" stop-color="white"/>
<stop offset="1" stop-color="#AEAEAE"/>
</linearGradient>
</defs>
</svg>
